HIERARCHY
ROOT joint_0
{
	OFFSET 0.000000 0.000000 0.000000
	CHANNELS 6 Xposition Yposition Zposition Zrotation Yrotation Xrotation 
	JOINT joint_1
	{
		OFFSET 0.511002 1.944000 108.288940
		CHANNELS 3 Zrotation Yrotation Xrotation
		JOINT joint_2
		{
			OFFSET -9.074005 1.512993 98.440063
			CHANNELS 3 Zrotation Yrotation Xrotation
			JOINT joint_3
			{
				OFFSET -8.590996 1.815002 98.366943
				CHANNELS 3 Zrotation Yrotation Xrotation
				JOINT joint_4
				{
					OFFSET 2.489998 3.531998 136.462036
					CHANNELS 3 Zrotation Yrotation Xrotation
					JOINT joint_5
					{
						OFFSET 22.708000 2.955002 80.357056
						CHANNELS 3 Zrotation Yrotation Xrotation
						End Site
						{
							OFFSET 0.000000 0.000000 0.000000
						}
					}
				}
				JOINT joint_6
				{
					OFFSET 2.860001 -27.684998 77.234009
					CHANNELS 3 Zrotation Yrotation Xrotation
					JOINT joint_7
					{
						OFFSET 5.449997 -131.244003 -18.851929
						CHANNELS 3 Zrotation Yrotation Xrotation
						JOINT joint_8
						{
							OFFSET 35.757000 -24.661995 -264.074097
							CHANNELS 3 Zrotation Yrotation Xrotation
							JOINT joint_9
							{
								OFFSET 49.392001 -1.747002 -239.960938
								CHANNELS 3 Zrotation Yrotation Xrotation
								End Site
								{
									OFFSET 0.000000 0.000000 0.000000
								}
							}
						}
					}
				}
				JOINT joint_10
				{
					OFFSET -0.127998 31.625000 75.753052
					CHANNELS 3 Zrotation Yrotation Xrotation
					JOINT joint_11
					{
						OFFSET -5.618004 131.132996 -19.557007
						CHANNELS 3 Zrotation Yrotation Xrotation
						JOINT joint_12
						{
							OFFSET 46.488998 30.127991 -261.826050
							CHANNELS 3 Zrotation Yrotation Xrotation
							JOINT joint_13
							{
								OFFSET 66.021003 0.474030 -235.934937
								CHANNELS 3 Zrotation Yrotation Xrotation
								End Site
								{
									OFFSET 0.000000 0.000000 0.000000
								}
							}
						}
					}
				}
			}
		}
	}
	JOINT joint_14
	{
		OFFSET 15.887001 -78.871004 -94.561035
		CHANNELS 3 Zrotation Yrotation Xrotation
		JOINT joint_15
		{
			OFFSET -4.133003 6.714001 -473.615967
			CHANNELS 3 Zrotation Yrotation Xrotation
			JOINT joint_16
			{
				OFFSET -19.541000 5.340000 -399.613007
				CHANNELS 3 Zrotation Yrotation Xrotation
				JOINT joint_17
				{
					OFFSET 164.317001 41.657999 -73.195000
					CHANNELS 3 Zrotation Yrotation Xrotation
					End Site
					{
						OFFSET 0.000000 0.000000 0.000000
					}
				}
			}
		}
	}
	JOINT joint_18
	{
		OFFSET 6.513000 77.960991 -96.406982
		CHANNELS 3 Zrotation Yrotation Xrotation
		JOINT joint_19
		{
			OFFSET -10.660004 -8.518997 -473.485016
			CHANNELS 3 Zrotation Yrotation Xrotation
			JOINT joint_20
			{
				OFFSET -36.967995 -11.098999 -398.260010
				CHANNELS 3 Zrotation Yrotation Xrotation
				JOINT joint_21
				{
					OFFSET 166.067997 30.363998 -74.785000
					CHANNELS 3 Zrotation Yrotation Xrotation
					End Site
					{
						OFFSET 0.000000 0.000000 0.000000
					}
				}
			}
		}
	}
}
MOTION
Frames: 9
Frame Time: 0.016667
-95.340000 94.673000 1059.708010 -0.372957 1.404091 0.386578 0.625875 -0.840092 0.134019 0.595305 0.100896 -0.057979 0.605844 -0.112226 0.015616 -0.250927 -0.716780 0.976283 0.000000 0.000000 0.000000 2.467019 -0.916584 0.667295 0.037357 -0.599759 -0.117697 -0.289568 1.143493 -1.343737 0.000000 0.000000 0.000000 -0.316381 -1.042733 -1.101592 -0.353288 -1.070558 -1.619527 0.635628 1.516113 2.272412 0.000000 0.000000 0.000000 -1.599613 -0.248520 -1.478494 -1.602086 0.334140 -0.448828 -1.635771 -1.624398 -0.315522 0.000000 0.000000 0.000000 -0.608720 -1.796405 0.446202 -0.612739 0.080622 -0.831257 -0.659572 -0.098544 -0.278888 0.000000 0.000000 0.000000 
-95.351000 94.110000 1059.866940 -0.332671 1.651322 0.394209 0.736246 -0.780156 -0.078733 0.734247 0.054067 0.024941 0.730148 -0.095172 -0.054326 -0.261738 -0.734237 1.016684 0.000000 0.000000 0.000000 1.989230 -0.961468 1.078010 0.027092 -0.736958 -0.318871 -0.296515 1.220195 -1.373218 0.000000 0.000000 0.000000 0.141535 -1.222072 -1.130599 -0.400452 -1.322702 -1.584745 0.619516 1.660687 2.220137 0.000000 0.000000 0.000000 -1.616465 -0.503460 -1.432448 -1.614830 0.308517 -0.465573 -1.648471 -1.613564 -0.323927 0.000000 0.000000 0.000000 -0.619404 -2.072268 0.483959 -0.627274 0.082972 -0.851063 -0.675135 -0.110662 -0.283667 0.000000 0.000000 0.000000 
-94.638000 93.721000 1060.066040 -0.244720 1.977405 0.393531 0.841908 -0.622596 -0.207478 0.859010 0.012075 0.073748 0.845226 -0.059684 -0.099411 -0.266761 -1.105979 1.080682 0.000000 0.000000 0.000000 1.658053 -0.861902 1.130966 0.015020 -0.686804 -0.359030 -0.241039 0.960412 -1.119948 0.000000 0.000000 0.000000 0.424225 -1.287714 -1.071693 -0.408112 -1.432669 -1.543933 0.543643 1.430870 1.949083 0.000000 0.000000 0.000000 -1.647261 -0.778316 -1.402504 -1.642286 0.242233 -0.449479 -1.673218 -1.595088 -0.339594 0.000000 0.000000 0.000000 -0.646048 -2.359920 0.525247 -0.656382 0.008480 -0.873624 -0.707352 -0.090385 -0.301858 0.000000 0.000000 0.000000 
-92.929000 93.667000 1060.296020 -0.093312 2.394168 0.376067 0.944012 -0.263830 -0.164924 0.961520 -0.022525 0.060882 0.947131 0.005207 -0.098350 -0.261773 -2.074085 1.179894 0.000000 0.000000 0.000000 1.540872 -0.489053 0.488847 -0.008893 -0.289189 -0.074490 -0.063840 -0.050274 -0.311782 0.000000 0.000000 0.000000 0.375745 -1.163832 -0.863587 -0.336658 -1.296465 -1.465954 0.351838 0.460647 1.259697 0.000000 0.000000 0.000000 -1.692926 -1.047554 -1.405320 -1.686604 0.092188 -0.369850 -1.709901 -1.562625 -0.364062 0.000000 0.000000 0.000000 -0.696058 -2.620079 0.573333 -0.705132 -0.220560 -0.900649 -0.763615 -0.016785 -0.340604 0.000000 0.000000 0.000000 
-90.497000 93.785000 1060.567020 0.104481 2.882149 0.352502 1.045288 0.209967 -0.033168 1.053740 -0.055135 0.019002 1.043250 0.073640 -0.075066 -0.245687 -3.410507 1.271745 0.000000 0.000000 0.000000 1.525174 0.037908 -0.443494 -0.055848 0.297342 0.324965 0.163265 -1.415425 0.751694 0.000000 0.000000 0.000000 0.151085 -0.925588 -0.609223 -0.220753 -1.012173 -1.327581 0.094504 -0.878345 0.351243 0.000000 0.000000 0.000000 -1.752492 -1.327395 -1.424544 -1.745420 -0.100565 -0.258057 -1.758455 -1.519004 -0.396576 0.000000 0.000000 0.000000 -0.761665 -2.882788 0.625060 -0.767892 -0.528432 -0.931164 -0.836318 0.095487 -0.393787 0.000000 0.000000 0.000000 
-87.493000 93.909000 1060.874020 0.328416 3.399786 0.341834 1.108858 0.562434 0.063171 1.110495 -0.072117 -0.012265 1.103408 0.111369 -0.057151 -0.217972 -4.712266 1.299802 0.000000 0.000000 0.000000 1.664655 0.483790 -1.035670 -0.105148 0.804000 0.517290 0.315797 -2.227241 1.494229 0.000000 0.000000 0.000000 -0.082684 -0.642085 -0.449482 -0.116298 -0.677184 -1.146955 -0.114120 -1.862698 -0.372527 0.000000 0.000000 0.000000 -1.830147 -1.630444 -1.437276 -1.820806 -0.239203 -0.174716 -1.825349 -1.473163 -0.437742 0.000000 0.000000 0.000000 -0.830754 -3.189921 0.663329 -0.836778 -0.751795 -0.959638 -0.912621 0.220374 -0.450869 0.000000 0.000000 0.000000 
-83.800000 93.974000 1061.235960 0.574414 3.999315 0.350502 1.106129 0.687656 0.056685 1.109546 -0.071107 -0.018087 1.103107 0.123339 -0.054636 -0.174132 -5.958601 1.245988 0.000000 0.000000 0.000000 2.148355 0.754535 -1.013385 -0.131694 1.137928 0.293465 0.376865 -2.010239 1.804707 0.000000 0.000000 0.000000 -0.317111 -0.275346 -0.421456 -0.026675 -0.252491 -0.895349 -0.255702 -2.300490 -0.864591 0.000000 0.000000 0.000000 -1.933001 -2.025074 -1.428968 -1.918355 -0.291382 -0.142515 -1.917160 -1.410922 -0.494050 0.000000 0.000000 0.000000 -0.902134 -3.591837 0.691441 -0.911121 -0.899422 -0.992927 -0.993161 0.403491 -0.520465 0.000000 0.000000 0.000000 
-79.537000 94.043000 1061.634030 0.847826 4.631971 0.374230 1.063059 0.686550 0.010449 1.070999 -0.057643 -0.015055 1.064749 0.116649 -0.055168 -0.122958 -7.168975 1.142680 0.000000 0.000000 0.000000 2.847872 0.938654 -0.696274 -0.142224 1.393481 -0.110511 0.381904 -1.231295 1.844363 0.000000 0.000000 0.000000 -0.578001 0.133479 -0.500444 0.057049 0.223900 -0.597817 -0.340853 -2.388638 -1.165281 0.000000 0.000000 0.000000 -2.054026 -2.448108 -1.414213 -2.032719 -0.287923 -0.138379 -2.027441 -1.345240 -0.559332 0.000000 0.000000 0.000000 -0.977558 -4.042682 0.705276 -0.992135 -0.962362 -1.023915 -1.077750 0.601989 -0.594653 0.000000 0.000000 0.000000 
-75.207000 94.146000 1062.012940 1.143437 5.114638 0.412986 1.021584 0.608538 -0.007825 1.029873 -0.027689 -0.014007 1.024969 0.086293 -0.053050 -0.083381 -7.996919 1.036911 0.000000 0.000000 0.000000 3.381937 1.066348 -0.421804 -0.138078 1.578302 -0.290280 0.298346 -0.387949 1.450371 0.000000 0.000000 0.000000 -0.741913 0.394983 -0.654154 0.091193 0.529332 -0.424863 -0.298670 -1.992840 -1.025292 0.000000 0.000000 0.000000 -2.176286 -2.726260 -1.412925 -2.149479 -0.225554 -0.153903 -2.143033 -1.329501 -0.614253 0.000000 0.000000 0.000000 -1.049469 -4.451631 0.675807 -1.074907 -0.747891 -1.023286 -1.151919 0.651501 -0.636918 0.000000 0.000000 0.000000 
